<svg width="44" height="44" viewBox="0 0 44 44" fill="none" xmlns="http://www.w3.org/2000/svg">
<path d="M25.568 3.83928C23.5123 2.08742 20.4888 2.08744 18.4332 3.83926L15.9618 5.94532C15.6682 6.19555 15.3031 6.34677 14.9185 6.37746L11.6818 6.63576C8.98949 6.8506 6.85158 8.98851 6.63674 11.6808L6.37846 14.9175C6.34778 15.3021 6.19652 15.6673 5.94628 15.9609L3.84022 18.4322C2.0884 20.4879 2.08842 23.5113 3.84026 25.5668L5.94632 28.0383C6.19652 28.332 6.34775 28.6971 6.37844 29.0817L6.63677 32.3183C6.85162 35.0105 8.98954 37.1484 11.6819 37.3632L14.9185 37.6217C15.3031 37.6523 15.6681 37.8036 15.9617 38.0538L18.433 40.1598C20.4888 41.9115 23.5123 41.9117 25.568 40.1598L28.0393 38.0538C28.3329 37.8036 28.6979 37.6523 29.0825 37.6215L32.3193 37.3632C35.0115 37.1485 37.1494 35.0107 37.3644 32.3183L37.6225 29.0817C37.6532 28.6971 37.8046 28.3319 38.0547 28.0382L40.1608 25.567C41.9127 23.5113 41.9127 20.4878 40.1608 18.4322L38.0547 15.9608C37.8044 15.6672 37.6533 15.3021 37.6227 14.9175L37.3644 11.6808C37.1495 8.98855 35.0115 6.85057 32.3193 6.63574L29.0825 6.37744C28.6979 6.34675 28.3329 6.19555 28.0393 5.94532L25.568 3.83928ZM27.1856 14.2216L29.7783 16.8143L16.8146 29.778L14.2219 27.1851L27.1856 14.2216ZM18.7592 18.7587C17.6852 19.8327 15.944 19.8327 14.8701 18.7587C13.7961 17.685 13.7961 15.9437 14.8701 14.8698C15.944 13.7958 17.6852 13.7958 18.7592 14.8698C19.8332 15.9437 19.8332 17.685 18.7592 18.7587ZM25.2409 29.1297C24.167 28.0558 24.167 26.3146 25.2409 25.2407C26.3149 24.1667 28.056 24.1667 29.13 25.2407C30.204 26.3146 30.204 28.0558 29.13 29.1297C28.056 30.2037 26.3149 30.2037 25.2409 29.1297Z" fill="#ED6E00"/>
</svg>
