<svg width="20" height="19" viewBox="0 0 20 19" fill="none" xmlns="http://www.w3.org/2000/svg">
<path d="M18.0049 11.0029V18.0029C18.0049 18.5552 17.5572 19.0029 17.0049 19.0029H3.00488C2.4526 19.0029 2.00488 18.5552 2.00488 18.0029V11.0029H18.0049ZM12.5049 0.00292969C14.4379 0.00292969 16.0049 1.56993 16.0049 3.50293C16.0049 4.04013 15.8839 4.54907 15.6676 5.00397L19.0049 5.00293C19.5572 5.00293 20.0049 5.45063 20.0049 6.00292V9.00291C20.0049 9.55521 19.5572 10.0029 19.0049 10.0029H1.00488C0.452602 10.0029 0.00488281 9.55521 0.00488281 9.00291V6.00292C0.00488281 5.45063 0.452602 5.00293 1.00488 5.00293L4.34219 5.00397C4.12591 4.54907 4.00488 4.04013 4.00488 3.50293C4.00488 1.56993 5.57189 0.00292969 7.50488 0.00292969C8.48489 0.00292969 9.37079 0.405689 10.0061 1.05471C10.639 0.405689 11.5249 0.00292969 12.5049 0.00292969ZM7.50488 2.00293C6.67646 2.00293 6.00488 2.6745 6.00488 3.50293C6.00488 4.28262 6.59977 4.92338 7.36042 4.99606L7.50488 5.00293H9.00489V3.50293C9.00489 2.72323 8.40999 2.08248 7.64934 2.00979L7.50488 2.00293ZM12.5049 2.00293L12.3604 2.00979C11.6473 2.07794 11.0799 2.64536 11.0117 3.35847L11.0049 3.50293V5.00293H12.5049L12.6493 4.99606C13.41 4.92338 14.0049 4.28262 14.0049 3.50293C14.0049 2.72323 13.41 2.08248 12.6493 2.00979L12.5049 2.00293Z" fill="#ED6E00"/>
</svg>
