<svg width="22" height="21" viewBox="0 0 22 21" fill="none" xmlns="http://www.w3.org/2000/svg">
<path d="M8.74712 1.2573C9.47552 0.528902 10.5044 0.185956 11.5241 0.331635L17.3738 1.1673C18.8138 1.37301 19.9451 2.50438 20.1508 3.94431L20.9865 9.79404C21.1322 10.8138 20.7892 11.8427 20.0608 12.5711L12.0255 20.6063C11.635 20.9969 11.0019 20.9969 10.6113 20.6063L0.711843 10.7069C0.321313 10.3163 0.321313 9.68317 0.711843 9.29257L8.74712 1.2573ZM12.7327 8.58547C13.5137 9.36657 14.78 9.36657 15.5611 8.58547C16.3421 7.80445 16.3421 6.53812 15.5611 5.75707C14.78 4.97603 13.5137 4.97603 12.7327 5.75707C11.9516 6.53812 11.9516 7.80445 12.7327 8.58547Z" fill="#B0BABF"/>
</svg>
