<svg width="21" height="21" viewBox="0 0 21 21" fill="none" xmlns="http://www.w3.org/2000/svg">
<path d="M0.833496 20.1666C0.833496 16.1165 4.11674 12.8333 8.16683 12.8333C12.2169 12.8333 15.5002 16.1165 15.5002 20.1666H0.833496ZM8.16683 11.9166C5.12808 11.9166 2.66683 9.45538 2.66683 6.41663C2.66683 3.37788 5.12808 0.916626 8.16683 0.916626C11.2056 0.916626 13.6668 3.37788 13.6668 6.41663C13.6668 9.45538 11.2056 11.9166 8.16683 11.9166ZM14.9161 13.9637C17.7443 14.6865 19.8707 17.1632 20.0685 20.1666H17.3335C17.3335 17.7743 16.417 15.596 14.9161 13.9637ZM13.0619 11.8771C14.5586 10.5345 15.5002 8.58552 15.5002 6.41663C15.5002 5.1174 15.1623 3.89709 14.5697 2.83876C16.6692 3.25777 18.2502 5.11006 18.2502 7.33329C18.2502 9.86558 16.1991 11.9166 13.6668 11.9166C13.4618 11.9166 13.2598 11.9032 13.0619 11.8771Z" fill="#B0BABF"/>
</svg>
